<svg width="74" height="30" viewBox="0 0 74 30" fill="none" xmlns="http://www.w3.org/2000/svg">
<path d="M5.85254 17.7285V16.7285H4.85254V17.7285H5.85254ZM5.85254 24V25H6.85254V24H5.85254ZM1.39648 24H0.396484V25H1.39648V24ZM1.39648 5.51562V4.51562H0.396484V5.51562H1.39648ZM12.5176 6.30273L12.0816 7.20275L12.0901 7.20676L12.5176 6.30273ZM15.0439 8.52441L14.1917 9.0477L14.1972 9.05643L15.0439 8.52441ZM14.0029 16.1162L14.6441 16.8836L14.6446 16.8832L14.0029 16.1162ZM5.85254 14.2881H4.85254V15.2881H5.85254V14.2881ZM10.7402 13.6406L10.0536 12.9136L10.0469 12.9201L10.7402 13.6406ZM8.82324 8.95605L8.83377 7.95605H8.82324V8.95605ZM5.85254 8.95605V7.95605H4.85254V8.95605H5.85254ZM4.85254 17.7285V24H6.85254V17.7285H4.85254ZM5.85254 23H1.39648V25H5.85254V23ZM2.39648 24V5.51562H0.396484V24H2.39648ZM1.39648 6.51562H8.77246V4.51562H1.39648V6.51562ZM8.77246 6.51562C10.061 6.51562 11.1559 6.75432 12.0816 7.20272L12.9535 5.40275C11.7126 4.80167 10.3107 4.51562 8.77246 4.51562V6.51562ZM12.0901 7.20676C13.0186 7.64583 13.7078 8.25949 14.1918 9.04768L15.8961 8.00115C15.1952 6.85965 14.2001 5.99219 12.9451 5.39871L12.0901 7.20676ZM14.1972 9.05643C14.6901 9.84081 14.9453 10.7411 14.9453 11.7871H16.9453C16.9453 10.3956 16.5997 9.12078 15.8907 7.9924L14.1972 9.05643ZM14.9453 11.7871C14.9453 13.3166 14.4121 14.4701 13.3613 15.3492L14.6446 16.8832C16.1836 15.5956 16.9453 13.863 16.9453 11.7871H14.9453ZM13.3618 15.3488C12.3087 16.2287 10.7939 16.7285 8.69629 16.7285V18.7285C11.1013 18.7285 13.1243 18.1535 14.6441 16.8836L13.3618 15.3488ZM8.69629 16.7285H5.85254V18.7285H8.69629V16.7285ZM5.85254 15.2881H8.77246V13.2881H5.85254V15.2881ZM8.77246 15.2881C9.79305 15.2881 10.7367 15.0318 11.4336 14.3612L10.0469 12.9201C9.84663 13.1127 9.47844 13.2881 8.77246 13.2881V15.2881ZM11.4269 14.3676C12.1319 13.7017 12.4258 12.8009 12.4258 11.8125H10.4258C10.4258 12.3984 10.2626 12.7162 10.0536 12.9136L11.4269 14.3676ZM12.4258 11.8125C12.4258 10.7642 12.1388 9.81508 11.4702 9.07353L9.98485 10.4128C10.2472 10.7038 10.4258 11.1342 10.4258 11.8125H12.4258ZM11.4702 9.07353C10.7876 8.31648 9.86925 7.96701 8.83377 7.95611L8.81272 9.956C9.38531 9.96203 9.73645 10.1373 9.98485 10.4128L11.4702 9.07353ZM8.82324 7.95605H5.85254V9.95605H8.82324V7.95605ZM4.85254 8.95605V14.2881H6.85254V8.95605H4.85254ZM26.3174 22.5146L27.3137 22.4295L27.0969 19.892L25.5293 21.8991L26.3174 22.5146ZM19.2207 22.9463L18.4681 23.6048L18.4749 23.6124L19.2207 22.9463ZM18.0654 10.2637V9.26367H17.0654V10.2637H18.0654ZM22.3438 10.2637H23.3438V9.26367H22.3438V10.2637ZM26.1523 19.8994L27.0135 20.4078L27.1523 20.1726V19.8994H26.1523ZM26.1523 10.2637V9.26367H25.1523V10.2637H26.1523ZM30.4561 10.2637H31.4561V9.26367H30.4561V10.2637ZM30.4561 24V25H31.4561V24H30.4561ZM26.4443 24L25.448 24.0852L25.5262 25H26.4443V24ZM25.5293 21.8991C24.8233 22.803 23.8977 23.2539 22.6484 23.2539V25.2539C24.4799 25.2539 26.0003 24.5453 27.1055 23.1302L25.5293 21.8991ZM22.6484 23.2539C21.3391 23.2539 20.504 22.8819 19.9665 22.2801L18.4749 23.6124C19.4947 24.7542 20.9447 25.2539 22.6484 25.2539V23.2539ZM19.9733 22.2878C19.4167 21.6517 19.0654 20.6601 19.0654 19.1631H17.0654C17.0654 20.95 17.4843 22.4804 18.4681 23.6048L19.9733 22.2878ZM19.0654 19.1631V10.2637H17.0654V19.1631H19.0654ZM18.0654 11.2637H22.3438V9.26367H18.0654V11.2637ZM21.3438 10.2637V19.1885H23.3438V10.2637H21.3438ZM21.3438 19.1885C21.3438 19.9236 21.522 20.66 22.0549 21.2087C22.593 21.7628 23.3246 21.9531 24.0576 21.9531V19.9531C23.648 19.9531 23.5227 19.8494 23.4896 19.8153C23.4511 19.7757 23.3438 19.6297 23.3438 19.1885H21.3438ZM24.0576 21.9531C25.3086 21.9531 26.3797 21.4813 27.0135 20.4078L25.2912 19.391C25.0956 19.7224 24.7702 19.9531 24.0576 19.9531V21.9531ZM27.1523 19.8994V10.2637H25.1523V19.8994H27.1523ZM26.1523 11.2637H30.4561V9.26367H26.1523V11.2637ZM29.4561 10.2637V24H31.4561V10.2637H29.4561ZM30.4561 23H26.4443V25H30.4561V23ZM27.4407 23.9148L27.3137 22.4295L25.321 22.5998L25.448 24.0852L27.4407 23.9148ZM34.6201 17.6523L34.1308 18.5245L34.139 18.529L34.6201 17.6523ZM34.0488 11.2412L34.6641 12.0295L34.6681 12.0264L34.0488 11.2412ZM42.5039 11.2412L41.9059 12.0427L42.5039 11.2412ZM44.1543 14.4785V15.4785H45.1543V14.4785H44.1543ZM39.8633 14.4785H38.8633V15.4785H39.8633V14.4785ZM36.9941 13.209L37.6215 13.9877L37.6279 13.9825L37.6343 13.9772L36.9941 13.209ZM38.873 15.6465L38.6888 16.6294L38.6906 16.6297L38.873 15.6465ZM41.0312 16.1924L41.3568 15.2468L41.3552 15.2463L41.0312 16.1924ZM42.4531 23.0732L41.8772 22.2558L41.8742 22.2578L42.4531 23.0732ZM32.0557 19.5947V18.5947H31.0557V19.5947H32.0557ZM36.0547 19.5947L37.0543 19.5681L37.0284 18.5947H36.0547V19.5947ZM36.6895 20.9912L36.1002 21.7993L36.1114 21.8072L36.6895 20.9912ZM39.5586 21.0674L38.9339 20.2865L38.9284 20.2909L38.9229 20.2955L39.5586 21.0674ZM41.0029 20.1406C41.0029 19.3397 40.546 18.7536 39.9319 18.3988L38.9314 20.1305C39.0205 20.182 39.0326 20.2104 39.0225 20.195C39.0174 20.1871 39.0111 20.1747 39.0069 20.16C39.0027 20.1456 39.0029 20.1378 39.0029 20.1406H41.0029ZM39.9319 18.3988C39.4027 18.093 38.5392 17.8388 37.4777 17.6029L37.0438 19.5553C38.1151 19.7934 38.6989 19.9962 38.9314 20.1305L39.9319 18.3988ZM37.4777 17.6029C36.4713 17.3793 35.6876 17.0975 35.1012 16.7757L34.139 18.529C34.9407 18.9689 35.9174 19.305 37.0438 19.5553L37.4777 17.6029ZM35.1094 16.7802C34.5258 16.4528 34.127 16.0842 33.8672 15.6914L32.1992 16.7949C32.6672 17.5024 33.3264 18.0732 34.1309 18.5245L35.1094 16.7802ZM33.8672 15.6914C33.62 15.3178 33.4873 14.8823 33.4873 14.3516H31.4873C31.4873 15.2427 31.7185 16.0683 32.1992 16.7949L33.8672 15.6914ZM33.4873 14.3516C33.4873 13.415 33.8526 12.6629 34.6641 12.0295L33.4336 10.4529C32.163 11.4445 31.4873 12.766 31.4873 14.3516H33.4873ZM34.6681 12.0264C35.4896 11.3785 36.6154 11.0098 38.1367 11.0098V9.00977C36.2895 9.00977 34.69 9.46199 33.4296 10.456L34.6681 12.0264ZM38.1367 11.0098C39.801 11.0098 41.0262 11.3863 41.9059 12.0427L43.1019 10.4397C41.7811 9.45416 40.0949 9.00977 38.1367 9.00977V11.0098ZM41.9059 12.0427C42.7611 12.6808 43.1543 13.4667 43.1543 14.4785H45.1543C45.1543 12.8159 44.4472 11.4435 43.1019 10.4397L41.9059 12.0427ZM44.1543 13.4785H39.8633V15.4785H44.1543V13.4785ZM40.8633 14.4785C40.8633 13.7605 40.6715 13.0417 40.1168 12.5153C39.5719 11.9983 38.8452 11.8281 38.124 11.8281V13.8281C38.5623 13.8281 38.7053 13.933 38.7401 13.9661C38.7652 13.9899 38.8633 14.0963 38.8633 14.4785H40.8633ZM38.124 11.8281C37.474 11.8281 36.8619 12.0175 36.354 12.4408L37.6343 13.9772C37.7358 13.8926 37.8769 13.8281 38.124 13.8281V11.8281ZM36.3668 12.4302C35.8402 12.8544 35.5371 13.4435 35.5371 14.1357H37.5371C37.5371 14.0902 37.5453 14.073 37.5482 14.067C37.5519 14.0597 37.567 14.0316 37.6215 13.9877L36.3668 12.4302ZM35.5371 14.1357C35.5371 14.9177 35.9517 15.5198 36.5588 15.9062L37.6326 14.2188C37.5481 14.1651 37.5306 14.1326 37.5332 14.1369C37.5342 14.1386 37.5362 14.1428 37.5375 14.1473C37.5386 14.1515 37.5371 14.1487 37.5371 14.1357H35.5371ZM36.5588 15.9062C37.0957 16.2478 37.8409 16.4704 38.6888 16.6294L39.0573 14.6636C38.2802 14.5179 37.8405 14.3512 37.6326 14.2188L36.5588 15.9062ZM38.6906 16.6297C39.476 16.7755 40.1463 16.9463 40.7073 17.1384L41.3552 15.2463C40.6805 15.0153 39.912 14.8222 39.0555 14.6633L38.6906 16.6297ZM40.7057 17.1379C41.6185 17.4522 42.2124 17.86 42.5777 18.3106C42.9322 18.748 43.1289 19.2955 43.1289 20.0137H45.1289C45.1289 18.8953 44.8093 17.8876 44.1313 17.0512C43.4641 16.2281 42.5091 15.6436 41.3568 15.2468L40.7057 17.1379ZM43.1289 20.0137C43.1289 20.9079 42.7568 21.636 41.8772 22.2558L43.0291 23.8907C44.3838 22.9362 45.1289 21.6247 45.1289 20.0137H43.1289ZM41.8742 22.2578C40.9791 22.8933 39.7603 23.2539 38.1367 23.2539V25.2539C40.0509 25.2539 41.7097 24.8274 43.032 23.8887L41.8742 22.2578ZM38.1367 23.2539C37.0814 23.2539 36.1777 23.0646 35.4052 22.7102L34.5713 24.5281C35.6439 25.0201 36.8391 25.2539 38.1367 25.2539V23.2539ZM35.4052 22.7102C34.62 22.35 34.0471 21.8799 33.6457 21.314L32.0144 22.4711C32.6456 23.361 33.5115 24.0419 34.5713 24.5281L35.4052 22.7102ZM33.6457 21.314C33.2356 20.7358 33.0557 20.1689 33.0557 19.5947H31.0557C31.0557 20.6287 31.392 21.5936 32.0144 22.4711L33.6457 21.314ZM32.0557 20.5947H36.0547V18.5947H32.0557V20.5947ZM35.055 19.6214C35.0778 20.4765 35.3789 21.2732 36.1003 21.7992L37.2786 20.1832C37.1875 20.1167 37.0654 19.9825 37.0543 19.5681L35.055 19.6214ZM36.1114 21.8072C36.7279 22.2439 37.4662 22.4229 38.251 22.4229V20.4229C37.7662 20.4229 37.4635 20.314 37.2675 20.1752L36.1114 21.8072ZM38.251 22.4229C38.9427 22.4229 39.6507 22.287 40.1943 21.8393L38.9229 20.2955C38.891 20.3217 38.7272 20.4229 38.251 20.4229V22.4229ZM40.1833 21.8483C40.7178 21.4206 41.0029 20.8239 41.0029 20.1406H39.0029C39.0029 20.1983 38.9926 20.2205 38.9901 20.2256C38.9877 20.2306 38.9774 20.2517 38.9339 20.2865L40.1833 21.8483Z" fill="#797E88"/>
<path d="M58.9521 17.2334C58.9521 19.3662 58.4697 21.0716 57.5049 22.3496C56.5485 23.6191 55.2536 24.2539 53.6201 24.2539C52.359 24.2539 51.3223 23.7926 50.5098 22.8701V29.2812H46.2314V10.2637H50.2305L50.3574 11.5332C51.1784 10.5176 52.2575 10.0098 53.5947 10.0098C55.2874 10.0098 56.6035 10.6361 57.543 11.8887C58.4824 13.1328 58.9521 14.8467 58.9521 17.0303V17.2334ZM54.6738 16.9668C54.6738 14.5293 53.9629 13.3105 52.541 13.3105C51.5254 13.3105 50.8483 13.6745 50.5098 14.4023V19.8105C50.8822 20.5723 51.5677 20.9531 52.5664 20.9531C53.929 20.9531 54.6315 19.7767 54.6738 17.4238V16.9668ZM68.5879 24C68.4355 23.7207 68.3001 23.3102 68.1816 22.7686C67.3945 23.7588 66.2943 24.2539 64.8809 24.2539C63.5859 24.2539 62.4857 23.8646 61.5801 23.0859C60.6745 22.2988 60.2217 21.3128 60.2217 20.1279C60.2217 18.6383 60.7718 17.5127 61.8721 16.751C62.9723 15.9893 64.5719 15.6084 66.6709 15.6084H67.9912V14.8848C67.9912 13.6237 67.4453 12.9932 66.3535 12.9932C65.3379 12.9932 64.8301 13.4925 64.8301 14.4912H60.5518C60.5518 13.1624 61.1146 12.0833 62.2402 11.2539C63.3743 10.4245 64.8174 10.0098 66.5693 10.0098C68.3213 10.0098 69.7051 10.4372 70.7207 11.292C71.7363 12.1468 72.2568 13.319 72.2822 14.8086V20.8896C72.2992 22.1507 72.4938 23.1156 72.8662 23.7842V24H68.5879ZM65.9092 21.207C66.4424 21.207 66.8825 21.0928 67.2295 20.8643C67.585 20.6357 67.8389 20.3776 67.9912 20.0898V17.8936H66.7471C65.2575 17.8936 64.5127 18.5622 64.5127 19.8994C64.5127 20.2887 64.6439 20.6061 64.9062 20.8516C65.1686 21.0885 65.5029 21.207 65.9092 21.207Z" fill="#426FE2"/>
</svg>
